<?xml version="1.0" encoding="UTF-8" standalone="no"?>
<!DOCTYPE svg PUBLIC "-//W3C//DTD SVG 1.1//EN" "http://www.w3.org/Graphics/SVG/1.1/DTD/svg11.dtd">
<svg width="100%" height="100%" viewBox="0 0 300 700" version="1.1" xmlns="http://www.w3.org/2000/svg" xmlns:xlink="http://www.w3.org/1999/xlink" xml:space="preserve" xmlns:serif="http://www.serif.com/" style="fill-rule:evenodd;clip-rule:evenodd;stroke-linecap:round;stroke-linejoin:round;stroke-miterlimit:1.5;">
    <path d="M135.971,224.212C111.727,197.966 168.002,181.308 164.219,213.465C161.365,237.722 114.348,239.233 134.95,209.474C149.195,188.899 178.768,220.949 149.585,227.434C128.718,232.071 138.473,206.604 150.915,212.134C155.772,214.293 161.556,230.833 140.272,226.104" style="fill:none;stroke:rgb(35,31,32);stroke-width:16.88px;"/>
    <path d="M140.824,453.477C95.336,450.804 139.933,385.277 163.554,418.346C181.607,443.62 126.292,472.064 133.62,432.98C139.374,402.294 181.216,427.549 158.898,444.288C138.117,459.874 128.517,438.405 142.268,429.654C147.587,426.269 169.535,426.334 156.902,438.967" style="fill:none;stroke:rgb(35,31,32);stroke-width:16.88px;"/>
</svg>
