<?xml version="1.0" encoding="UTF-8" standalone="no"?>
<!DOCTYPE svg PUBLIC "-//W3C//DTD SVG 1.1//EN" "http://www.w3.org/Graphics/SVG/1.1/DTD/svg11.dtd">
<svg width="100%" height="100%" viewBox="0 0 300 700" version="1.1" xmlns="http://www.w3.org/2000/svg" xmlns:xlink="http://www.w3.org/1999/xlink" xml:space="preserve" xmlns:serif="http://www.serif.com/" style="fill-rule:evenodd;clip-rule:evenodd;stroke-linecap:round;stroke-linejoin:round;stroke-miterlimit:1.5;">
    <path d="M136.946,212.134C126.972,172.238 165.576,169.799 168.21,193.509C171.649,224.457 121.746,218.455 138.276,194.839C149.9,178.235 173.766,203.925 154.241,212.8C137.806,220.27 142.204,190.333 154.906,193.509C157.218,194.087 160.741,208.561 146.259,206.148" style="fill:none;stroke:rgb(35,31,32);stroke-width:16.88px;"/>
    <path d="M160.124,471.208C141.439,468.128 137.104,463.929 145.594,446.949C160.403,417.33 189.951,462.19 164.219,470.231C134.804,479.424 153.829,424.155 168.21,444.288C178.225,458.308 153.024,474.18 150.25,458.923C148.124,447.229 160.832,435.441 167.545,446.949C174.644,459.119 159.037,462.587 157.567,462.914" style="fill:none;stroke:rgb(35,31,32);stroke-width:16.88px;"/>
</svg>
